<?xml version="1.0" encoding="utf-8"?>
<!-- Generator: Adobe Illustrator 17.0.0, SVG Export Plug-In . SVG Version: 6.00 Build 0)  -->
<!DOCTYPE svg PUBLIC "-//W3C//DTD SVG 1.1//EN" "http://www.w3.org/Graphics/SVG/1.1/DTD/svg11.dtd">
<svg version="1.1" id="Capa_1" xmlns="http://www.w3.org/2000/svg" xmlns:xlink="http://www.w3.org/1999/xlink" x="0px" y="0px"
	 width="512px" height="512px" viewBox="0 0 512 512" enable-background="new 0 0 512 512" xml:space="preserve">
<g>
	<path fill="#EE2141" d="M502.56,133.443H9.44c-5.211,0-9.44,4.219-9.44,9.44v38.77c0,5.221,4.229,9.44,9.44,9.44
		s9.44-4.219,9.44-9.44v-29.331h474.241v269.235H18.88v-29.339c0-5.221-4.229-9.44-9.44-9.44S0,386.998,0,392.217v38.779
		c0,5.221,4.229,9.44,9.44,9.44h493.12c5.211,0,9.44-4.219,9.44-9.44V142.883C512,137.662,507.771,133.443,502.56,133.443z"/>
	<path fill="#EE2141" d="M401.866,286.935c0-56.753-46.171-102.923-102.923-102.923s-102.923,46.18-102.923,102.923
		c0,56.753,46.171,102.923,102.923,102.923S401.866,343.687,401.866,286.935z M214.89,286.935c0-46.34,37.703-84.043,84.043-84.043
		s84.043,37.703,84.043,84.043s-37.703,84.043-84.043,84.043S214.89,333.284,214.89,286.935z"/>
	<path fill="#EE2141" d="M308.382,236.686c0-5.221-4.229-9.44-9.44-9.44c-32.916,0-59.689,26.781-59.689,59.689
		c0,5.221,4.229,9.44,9.44,9.44c5.211,0,9.44-4.219,9.44-9.44c0-22.505,18.304-40.809,40.809-40.809
		C304.154,246.126,308.382,241.906,308.382,236.686z"/>
	<path fill="#EE2141" d="M458.486,195.519c5.211,0,9.44-4.219,9.44-9.44v-7.439c0-5.221-4.229-9.44-9.44-9.44h-39.298
		c-5.211,0-9.44,4.219-9.44,9.44v7.439c0,5.221,4.229,9.44,9.44,9.44H458.486z"/>
	<path fill="#EE2141" d="M44.065,381.381c-5.211,0-9.44,4.219-9.44,9.44s4.229,9.44,9.44,9.44H85.62c5.211,0,9.44-4.219,9.44-9.44
		V182.36c0-5.221-4.229-9.44-9.44-9.44H44.065c-5.211,0-9.44,4.219-9.44,9.44c0,5.221,4.229,9.44,9.44,9.44h32.114v189.582
		C76.18,381.38,44.065,381.38,44.065,381.381z"/>
	<path fill="#EE2141" d="M117.48,120.925c5.211,0,9.44-4.219,9.44-9.44V81.004c0-5.221-4.229-9.44-9.44-9.44H44.065
		c-5.211,0-9.44,4.219-9.44,9.44v30.481c0,5.221,4.229,9.44,9.44,9.44s9.44-4.219,9.44-9.44V90.444h54.535v21.041
		C108.04,116.705,112.268,120.925,117.48,120.925z"/>
</g>
</svg>
