<?xml version="1.0" encoding="utf-8"?>
<!-- Generator: Adobe Illustrator 17.0.0, SVG Export Plug-In . SVG Version: 6.00 Build 0)  -->
<!DOCTYPE svg PUBLIC "-//W3C//DTD SVG 1.1//EN" "http://www.w3.org/Graphics/SVG/1.1/DTD/svg11.dtd">
<svg version="1.1" id="Capa_1" xmlns="http://www.w3.org/2000/svg" xmlns:xlink="http://www.w3.org/1999/xlink" x="0px" y="0px"
	 width="512px" height="512px" viewBox="0 0 512 512" enable-background="new 0 0 512 512" xml:space="preserve">
<path fill="#2F99D5" d="M504.553,31.829L480.239,7.507c-9.93-9.904-26.079-9.913-36.009,0.009l-26.668,26.668H0v477.731h477.731
	V94.668l2.602-2.602l0,0l24.219-24.219C514.482,57.916,514.482,41.759,504.553,31.829z M171.019,313.588l27.47,27.47l-37.775,10.305
	L171.019,313.588z M444.137,104.128L407.948,67.94l12.063-12.063l36.197,36.188L444.137,104.128z M432.074,116.191L214.911,333.354
	l-36.188-36.188L395.886,80.003L432.074,116.191z M460.669,111.729v383.123H17.062V51.245h383.439L160.629,291.135l-1.604,1.604
	L140.931,359.1l-10.459,10.459c-3.336,3.336-3.336,8.727,0,12.063c1.664,1.664,3.847,2.5,6.031,2.5s4.368-0.836,6.031-2.5
	l10.459-10.459l66.362-18.111l224.798-224.79l0,0l3.813-3.813L460.669,111.729z M492.49,55.784l-24.219,24.219l-36.197-36.197
	l24.219-24.219c3.276-3.276,8.608-3.267,11.884,0L492.49,43.9C495.766,47.167,495.766,52.508,492.49,55.784z"/>
</svg>
