<?xml version="1.0" encoding="utf-8"?>
<!-- Generator: Adobe Illustrator 17.0.0, SVG Export Plug-In . SVG Version: 6.00 Build 0)  -->
<!DOCTYPE svg PUBLIC "-//W3C//DTD SVG 1.1//EN" "http://www.w3.org/Graphics/SVG/1.1/DTD/svg11.dtd">
<svg version="1.1" id="Layer_1" xmlns="http://www.w3.org/2000/svg" xmlns:xlink="http://www.w3.org/1999/xlink" x="0px" y="0px"
	 width="512px" height="512px" viewBox="0 0 512 512" enable-background="new 0 0 512 512" xml:space="preserve">
<g>
	<path fill="#5ABA47" d="M92.018,107.814h208.774c7.134,0,12.919,5.786,12.919,12.919s-5.786,12.919-12.919,12.919H92.018
		c-7.134,0-12.919-5.786-12.919-12.919S84.882,107.814,92.018,107.814z M92.018,163.656h208.774c7.134,0,12.919,5.786,12.919,12.919
		s-5.786,12.919-12.919,12.919H92.018c-7.134,0-12.919-5.786-12.919-12.919S84.882,163.656,92.018,163.656z M92.018,219.5h208.774
		c7.134,0,12.919,5.786,12.919,12.919s-5.786,12.919-12.919,12.919H92.018c-7.134,0-12.919-5.786-12.919-12.919
		S84.882,219.5,92.018,219.5z M92.018,275.343h208.774c7.134,0,12.919,5.786,12.919,12.919s-5.786,12.919-12.919,12.919H92.018
		c-7.134,0-12.919-5.786-12.919-12.919S84.882,275.343,92.018,275.343L92.018,275.343z"/>
	<path fill="#5ABA47" d="M92.018,133.653h208.774c7.134,0,12.919-5.786,12.919-12.919s-5.786-12.919-12.919-12.919H92.018
		c-7.134,0-12.919,5.786-12.919,12.919S84.882,133.653,92.018,133.653z"/>
	<path fill="#5ABA47" d="M92.018,189.494h208.774c7.134,0,12.919-5.786,12.919-12.919s-5.786-12.919-12.919-12.919H92.018
		c-7.134,0-12.919,5.786-12.919,12.919S84.882,189.494,92.018,189.494z"/>
	<path fill="#5ABA47" d="M92.018,245.338h208.774c7.134,0,12.919-5.786,12.919-12.919s-5.786-12.919-12.919-12.919H92.018
		c-7.134,0-12.919,5.786-12.919,12.919S84.882,245.338,92.018,245.338z"/>
	<path fill="#5ABA47" d="M92.018,301.182h208.774c7.134,0,12.919-5.786,12.919-12.919s-5.786-12.919-12.919-12.919H92.018
		c-7.134,0-12.919,5.786-12.919,12.919S84.882,301.182,92.018,301.182z"/>
	<path fill="#5ABA47" d="M512,211.793c0-3.426-1.361-6.712-3.783-9.136l-35.218-35.216c-2.422-2.422-5.708-3.783-9.136-3.783
		s-6.712,1.361-9.136,3.783l-61.918,61.918V39.624c0-7.134-5.784-12.919-12.919-12.919H12.919C5.784,26.704,0,32.49,0,39.624
		v432.753c0,7.134,5.784,12.919,12.919,12.919h366.972c7.136,0,12.919-5.786,12.919-12.919V336.336l115.406-115.406
		C510.639,218.507,512,215.221,512,211.793L512,211.793z M25.839,459.457V52.543h341.133v202.655l-75.989,75.989H92.018
		c-7.134,0-12.919,5.786-12.919,12.919s5.786,12.919,12.919,12.919h173.126l-2.224,2.224c-1.673,1.673-2.855,3.775-3.415,6.074
		l-8.951,36.712h-54.149c-7.134,0-12.919,5.786-12.919,12.919s5.786,12.919,12.919,12.919c0,0,63.981,0,64.295,0
		c1.018,0,2.046-0.121,3.06-0.368l46.572-11.354c2.3-0.56,4.401-1.742,6.074-3.415l50.562-50.562v97.285H25.839V459.457z
		 M300.695,391.902l-22.411,5.465l5.465-22.411l180.113-180.113l16.948,16.948L300.695,391.902z"/>
</g>
</svg>
